<svg xmlns="http://www.w3.org/2000/svg" viewBox="0 0 578 243.44" width="578" height="243.44"><defs><style>.c{fill:#fff}</style></defs><path style="isolation:isolate" opacity=".25" fill="#fff" d="M0 0h578v243.44H0z"/><g opacity=".5"><path class="c" d="M105.24 157.37V86.21h19.23v55.64h27.4v15.53h-46.63zM259.74 121.72q0 18-8.81 27.3t-25.8 9.34q-16.74 0-25.67-9.39t-8.93-27.35q0-17.76 8.88-27.13t25.82-9.37q17 0 25.75 9.3t8.76 27.3zm-49 0q0 20.64 14.36 20.64 7.3 0 10.83-5t3.56-15.64q0-10.66-3.58-15.75t-10.68-5.09q-14.45 0-14.45 20.84zM331.06 115.72h30.71v38.35a84.42 84.42 0 01-27.5 4.28q-16.45 0-25.43-9.54t-9-27.21q0-17.23 9.83-26.82t27.55-9.59a61 61 0 0112.68 1.27 53.64 53.64 0 0110.39 3.21l-6.06 15.05a37.62 37.62 0 00-16.89-3.8q-8.42 0-13 5.48t-4.6 15.6q0 10 4.16 15.21t12 5.23a35.22 35.22 0 007.88-.83v-11.06h-12.7v-14.83zM472.76 121.72q0 18-8.81 27.3t-25.8 9.34q-16.74 0-25.67-9.39t-8.93-27.35q0-17.76 8.88-27.13t25.82-9.37q17 0 25.75 9.3t8.76 27.3zm-49 0q0 20.64 14.36 20.64 7.3 0 10.83-5t3.57-15.64q0-10.66-3.58-15.75t-10.68-5.09q-14.46 0-14.46 20.84z"/></g></svg>